<?xml version="1.0" encoding="utf-8"?>
<!-- Generator: Adobe Illustrator 27.4.0, SVG Export Plug-In . SVG Version: 6.00 Build 0)  -->
<svg version="1.1" id="Слой_1" xmlns="http://www.w3.org/2000/svg" xmlns:xlink="http://www.w3.org/1999/xlink" x="0px" y="0px"
	 viewBox="0 0 577 173" style="enable-background:new 0 0 577 173;" xml:space="preserve">
<style type="text/css">
	.st0{fill:none;}
	.st1{font-family:'Square721BT-RomanCondensed';}
	.st2{font-size:113.4718px;}
</style>
<g>
	<g>
		<path d="M134.14,48.45c-6.27-4.91-12.62-6.61-18.23-6.57c-4.29,0.01-8.13,0.88-11.53,1.65c-3.4,0.79-6.37,1.46-8.83,1.45
			c-2.46,0.01-5.42-0.66-8.83-1.45c-3.4-0.77-7.24-1.65-11.53-1.65c-5.61-0.04-11.96,1.66-18.23,6.58
			c-4.66,3.6-8.04,8.33-10.17,13.72c-2.14,5.4-3.08,11.46-3.08,17.97c0.01,9.98,2.19,21.07,6,32.85
			c3.93,12.16,7.29,21.09,9.78,27.59c1.24,3.25,2.26,5.88,3.01,7.97c0.75,2.07,1.22,3.62,1.37,4.48c0.61,3.33,2.14,6.16,4.33,8.13
			c2.18,1.97,4.97,3.01,7.77,3c2.89,0,5.76-1.1,8.05-3.12c2.3-2.02,4.01-4.94,4.83-8.48c0.24-1.04,0.39-2.13,0.54-3.36
			c0.26-2.14,0.49-4.66,0.82-7.26c0.48-3.88,1.25-7.95,2.4-10.56c0.56-1.31,1.19-2.21,1.66-2.62c0.5-0.41,0.67-0.48,1.26-0.51
			c0.46,0.01,0.64,0.08,0.95,0.27c0.52,0.3,1.41,1.38,2.14,3.25c1.12,2.76,1.84,6.87,2.31,10.74c0.24,1.94,0.43,3.83,0.61,5.52
			c0.2,1.71,0.37,3.18,0.68,4.54c0.82,3.53,2.53,6.46,4.83,8.48c2.29,2.03,5.17,3.12,8.05,3.12c2.79,0.01,5.59-1.04,7.77-3.01
			c2.19-1.96,3.72-4.79,4.33-8.13c0.16-0.86,0.62-2.41,1.37-4.48c2.26-6.28,6.91-17.34,12.79-35.56c3.8-11.78,5.99-22.88,5.99-32.85
			c0-6.51-0.94-12.57-3.08-17.97C142.18,56.78,138.8,52.05,134.14,48.45z M133.52,110.44c-3.87,11.97-7.16,20.72-9.63,27.18
			c-1.24,3.23-2.27,5.89-3.07,8.12c-0.8,2.25-1.39,4.05-1.72,5.77c-0.35,1.81-1.04,2.85-1.73,3.47c-0.7,0.62-1.45,0.88-2.24,0.89
			c-0.82-0.01-1.72-0.29-2.6-1.06c-0.87-0.77-1.74-2.05-2.23-4.14c-0.11-0.47-0.25-1.37-0.39-2.46c-0.24-1.94-0.47-4.53-0.82-7.3
			c-0.55-4.18-1.3-8.78-3.01-12.81c-0.87-2.01-2.01-3.94-3.74-5.51c-1.71-1.58-4.18-2.66-6.79-2.63c-1.98-0.01-3.91,0.59-5.45,1.6
			c-2.71,1.8-4.22,4.43-5.32,7.12c-1.62,4.07-2.32,8.68-2.84,12.82c-0.25,2.06-0.44,3.99-0.63,5.61c-0.18,1.61-0.36,2.94-0.52,3.56
			c-0.49,2.09-1.36,3.37-2.23,4.13c-0.88,0.77-1.77,1.06-2.6,1.06c-0.8-0.01-1.54-0.26-2.24-0.88c-0.69-0.62-1.38-1.67-1.73-3.47
			c-0.33-1.72-0.92-3.53-1.72-5.77c-2.4-6.67-6.9-17.32-12.7-35.3c-3.62-11.21-5.6-21.55-5.59-30.29c0-5.71,0.83-10.72,2.49-14.9
			c1.67-4.18,4.11-7.55,7.54-10.22c5.02-3.85,9.07-4.81,13.17-4.84c3.13,0,6.33,0.67,9.68,1.45c3.35,0.76,6.85,1.64,10.67,1.65
			c3.83-0.01,7.32-0.89,10.67-1.65c3.35-0.78,6.55-1.45,9.68-1.45c4.1,0.04,8.14,0.99,13.17,4.84c3.43,2.67,5.87,6.04,7.54,10.22
			c1.66,4.18,2.49,9.19,2.49,14.9C139.12,88.89,137.15,99.24,133.52,110.44z"/>
		<path d="M158.36,16.89l-14.14-3.76c-0.37-0.08-0.67-0.38-0.75-0.75l-3.73-14.19c-0.1-0.41-0.46-0.71-0.89-0.71
			c-0.43,0-0.79,0.29-0.89,0.71l-3.73,14.19c-0.08,0.37-0.38,0.67-0.75,0.75l-14.14,3.76c-0.41,0.08-0.71,0.45-0.71,0.88
			c0,0.43,0.29,0.8,0.71,0.88l14.14,3.76c0.37,0.08,0.67,0.38,0.75,0.75l3.73,14.19c0.1,0.42,0.46,0.71,0.89,0.71
			c0.42,0,0.79-0.29,0.89-0.71l3.73-14.19c0.08-0.37,0.38-0.68,0.75-0.75l14.14-3.76c0.41-0.08,0.71-0.45,0.71-0.88
			C159.07,17.34,158.78,16.97,158.36,16.89z"/>
		<path d="M95.93,80.74L83.02,77.3c-0.34-0.07-0.61-0.35-0.69-0.69l-3.41-12.96c-0.09-0.38-0.42-0.65-0.81-0.65
			c-0.39,0-0.72,0.27-0.81,0.65l-3.4,12.96c-0.08,0.34-0.35,0.61-0.69,0.69L60.3,80.74c-0.38,0.07-0.65,0.41-0.65,0.8
			c0,0.39,0.27,0.73,0.65,0.8l12.91,3.44c0.34,0.07,0.61,0.35,0.69,0.69l3.4,12.96c0.09,0.38,0.42,0.65,0.81,0.65
			c0.39,0,0.72-0.27,0.81-0.65l3.41-12.96c0.07-0.34,0.35-0.62,0.69-0.69l12.91-3.44c0.38-0.07,0.65-0.41,0.65-0.8
			C96.58,81.15,96.31,80.81,95.93,80.74z"/>
		<path d="M44.36,40.03l10.95-2.91c0.32-0.06,0.55-0.35,0.55-0.68c0-0.33-0.23-0.62-0.55-0.68l-10.95-2.91
			c-0.29-0.06-0.52-0.29-0.58-0.58l-2.89-10.99c-0.08-0.32-0.36-0.55-0.69-0.55c-0.33,0-0.61,0.23-0.69,0.55l-2.89,10.99
			c-0.07,0.29-0.3,0.52-0.58,0.58l-10.95,2.91c-0.32,0.06-0.55,0.35-0.55,0.68c0,0.33,0.23,0.62,0.55,0.68l10.95,2.91
			c0.29,0.06,0.52,0.29,0.58,0.58l2.89,10.99c0.08,0.32,0.36,0.55,0.69,0.55c0.33,0,0.61-0.23,0.69-0.55l2.89-10.99
			C43.84,40.33,44.07,40.09,44.36,40.03z"/>
	</g>
	<rect x="66.25" y="76.8" class="st0" width="535.3" height="93.68"/>
	<text transform="matrix(0.9964 0 0 1 163.6127 160.5384)" class="st1 st2">Vitadent</text>
</g>
</svg>
