<?xml version="1.0" encoding="utf-8"?>
<!-- Generator: Adobe Illustrator 27.4.0, SVG Export Plug-In . SVG Version: 6.00 Build 0)  -->
<svg version="1.1" id="Слой_1" xmlns="http://www.w3.org/2000/svg" xmlns:xlink="http://www.w3.org/1999/xlink" x="0px" y="0px"
	 viewBox="0 0 141.7 85" style="enable-background:new 0 0 141.7 85;" xml:space="preserve">
<style type="text/css">
	.st0{fill:none;}
	.st1{font-family:'DeVinneBT-Text';}
	.st2{font-size:24px;}
</style>
<g>
	<path d="M41,26.8c0.3,0,0.4-0.1,0.5-0.4c0.7-3.5,0.6-3.6,4.3-4.3c0.3,0,0.4-0.2,0.4-0.5s-0.2-0.4-0.4-0.5c-3.7-0.7-3.6-0.8-4.3-4.3
		c-0.1-0.2-0.2-0.4-0.5-0.4c-0.3,0-0.4,0.1-0.5,0.4c-0.7,3.5-0.6,3.6-4.3,4.3c-0.2,0-0.4,0.2-0.4,0.5s0.2,0.4,0.4,0.5
		c3.7,0.8,3.7,0.8,4.3,4.3C40.7,26.6,40.8,26.8,41,26.8z M30.7,41.4c0.4,0,0.7-0.3,0.7-0.6c0.8-5.7,1-5.7,6.8-6.8
		c0.4-0.1,0.7-0.3,0.7-0.7c0-0.4-0.3-0.7-0.7-0.7c-5.9-0.8-6.1-1-6.8-6.8c0-0.4-0.3-0.7-0.7-0.7c-0.4,0-0.7,0.3-0.7,0.7
		c-0.7,5.7-1,5.7-6.8,6.8c-0.4,0.1-0.7,0.3-0.7,0.7c0,0.4,0.3,0.7,0.7,0.7c5.8,0.9,6,1.1,6.8,6.8C30.1,41.2,30.4,41.4,30.7,41.4z
		 M45.2,65c0.5,0,1-0.4,1.1-1c1.5-11.7,3.2-13.4,14.7-14.7c0.6-0.1,1-0.5,1-1.1c0-0.5-0.4-1-1-1.1c-11.5-1.3-13.2-3-14.7-14.7
		c-0.1-0.6-0.5-1-1.1-1s-1,0.4-1,1C42.6,44.1,41,45.9,29.4,47.2c-0.6,0.1-1,0.5-1,1.1c0,0.5,0.4,1,1,1.1
		c11.5,1.5,13.1,3.1,14.7,14.7C44.2,64.6,44.6,65,45.2,65z"/>
	<rect x="62.8" y="26.4" class="st0" width="56.4" height="37.9"/>
	<text transform="matrix(1 0 0 1 62.8363 53.2168)" class="st1 st2">Astro</text>
</g>
</svg>
